Coordinates
version=1
nRows=16
nColumns=30
inDegrees=yes

Units are S.I. units (second, meters, Newtons, ...)
Angles are in degrees.

endheader
time	floatyaw	floatroll	floatpitch	floatx	floaty	floatz	pro_sup_l	deviation_l	flexion_l	cmc_flexion_l	cmc_abduction_l	mp_flexion_l	ip_flexion_l	2mcp_flexion_l	2mcp_abduction_l	2pm_flexion_l	2md_flexion_l	3mcp_flexion_l	3mcp_abduction_l	3pm_flexion_l	3md_flexion_l	4mcp_flexion_l	4mcp_abduction_l	4pm_flexion_l	4md_flexion_l	5mcp_flexion_l	5mcp_abduction_l	5pm_flexion_l	5md_flexion_l
-1.495000	0.705439	-1.708008	98.521615	-0.105520	-0.193370	-0.025684	88.325624	0.606142	-1.233899	18.842556	3.498910	-21.628551	-35.072144	36.029079	8.648036	45.892187	32.424517	22.391663	4.707583	45.215685	30.652247	12.550001	-4.515740	59.667499	40.717447	9.112843	-9.109134	58.448140	41.068810
-1.485000	0.705439	-1.708008	98.521615	-0.105514	-0.193371	-0.025685	88.324573	0.606602	-1.237712	18.827291	3.481881	-21.629587	-35.068499	36.046152	8.648576	45.895271	32.423037	22.390698	4.707981	45.233393	30.664049	12.551564	-4.515129	59.682439	40.725869	9.115760	-9.111605	58.477509	41.075950
-1.475000	0.705439	-1.708008	98.521615	-0.105507	-0.193374	-0.025685	88.319949	0.603930	-1.241978	18.809272	3.465815	-21.629809	-35.062273	36.062471	8.649947	45.899251	32.424067	22.387963	4.709147	45.256695	30.679628	12.555112	-4.515955	59.699962	40.735751	9.115323	-9.113868	58.504019	41.082414
-1.465000	0.705439	-1.708008	98.521615	-0.105500	-0.193378	-0.025681	88.313202	0.599212	-1.246805	18.790077	3.449370	-21.628910	-35.053886	36.077273	8.651059	45.903254	32.426864	22.385807	4.710880	45.282592	30.695768	12.561212	-4.518170	59.717994	40.746564	9.112499	-9.114485	58.524316	41.086409
-1.455000	0.705439	-1.708008	98.521615	-0.105493	-0.193382	-0.025676	88.306685	0.594115	-1.251962	18.771117	3.431147	-21.626832	-35.043996	36.090124	8.651042	45.905515	32.429566	22.386389	4.712631	45.306933	30.708588	12.569893	-4.521493	59.733833	40.756883	9.108378	-9.111984	58.536327	41.086521
-1.445000	0.705439	-1.708008	98.521615	-0.105487	-0.193384	-0.025670	88.302052	0.589792	-1.256656	18.752998	3.411061	-21.623620	-35.033245	36.100821	8.649588	45.904994	32.430387	22.390350	4.713797	45.326489	30.715609	12.580239	-4.525438	59.745309	40.765091	9.103898	-9.105759	58.540271	41.082397
-1.435000	0.705439	-1.708008	98.521615	-0.105482	-0.193383	-0.025663	88.299254	0.586240	-1.259717	18.735343	3.390704	-21.619224	-35.022001	36.109430	8.647065	45.902265	32.428630	22.396527	4.714026	45.340400	30.716971	12.590532	-4.529399	59.751906	40.770288	9.099673	-9.096582	58.539016	41.075145
-1.425000	0.705439	-1.708008	98.521615	-0.105480	-0.193379	-0.025656	88.296889	0.582558	-1.260161	18.717125	3.372432	-21.613545	-35.010299	36.116496	8.644263	45.899110	32.424966	22.402893	4.713378	45.350175	30.715104	12.598863	-4.532721	59.754963	40.772791	9.096061	-9.086436	58.537241	41.067133
-1.415000	0.705439	-1.708008	98.521615	-0.105479	-0.193374	-0.025649	88.293496	0.577794	-1.257784	18.697250	3.357909	-21.606785	-34.998064	36.123165	8.641829	45.897416	32.420971	22.407870	4.712260	45.358525	30.713269	12.603731	-4.534751	59.756768	40.773952	9.093448	-9.077865	58.539628	41.061145
-1.405000	0.705439	-1.708008	98.521615	-0.105479	-0.193368	-0.025643	88.288658	0.571610	-1.253363	18.675104	3.347254	-21.599830	-34.985497	36.130925	8.639735	45.898357	32.418321	22.410951	4.711246	45.368021	30.714099	12.604311	-4.534953	59.759349	40.775504	9.092578	-9.073264	58.548911	41.059157
-1.395000	0.705439	-1.708008	98.521615	-0.105478	-0.193363	-0.025636	88.283208	0.564346	-1.248384	18.650836	3.339383	-21.594269	-34.973380	36.141083	8.637231	45.902344	32.418093	22.412432	4.710843	45.380352	30.718926	12.600519	-4.533101	59.763784	40.778800	9.094629	-9.074264	58.564708	41.061300
-1.385000	0.705439	-1.708008	98.521615	-0.105475	-0.193358	-0.025628	88.278666	0.556639	-1.244495	18.625338	3.333014	-21.591879	-34.963063	36.154314	8.633386	45.909407	32.420404	22.412882	4.711278	45.396194	30.727878	12.593198	-4.529490	59.770245	40.784264	9.100864	-9.081164	58.583576	41.065610
-1.375000	0.705439	-1.708008	98.521615	-0.105472	-0.193355	-0.025618	88.276476	0.549012	-1.242944	18.599956	3.327299	-21.593806	-34.956027	36.170506	8.627874	45.919344	32.424413	22.412940	4.712374	45.415227	30.740183	12.584257	-4.524943	59.778361	40.791239	9.111980	-9.092525	58.600241	41.068745
-1.365000	0.705439	-1.708008	98.521615	-0.105468	-0.193352	-0.025605	88.277404	0.541708	-1.244175	18.575975	3.321564	-21.599917	-34.953177	36.188775	8.621413	45.931398	32.428604	22.413343	4.713615	45.436090	30.754356	12.576275	-4.520505	59.787495	40.798367	9.127569	-9.105378	58.609513	41.067372
-1.355000	0.705439	-1.708008	98.521615	-0.105464	-0.193350	-0.025589	88.281277	0.534756	-1.247671	18.554048	3.314662	-21.608754	-34.954221	36.207512	8.615463	45.943907	32.431318	22.414812	4.714350	45.456479	30.768429	12.571417	-4.516951	59.796888	40.804373	9.146068	-9.116297	58.608274	41.059581
-1.345000	0.705439	-1.708008	98.521615	-0.105460	-0.193347	-0.025571	88.287109	0.528122	-1.252126	18.533849	3.304826	-21.618153	-34.957576	36.224553	8.611352	45.954604	32.431432	22.417689	4.714026	45.473778	30.780481	12.570302	-4.514435	59.805730	40.808844	9.165200	-9.122945	58.596786	41.045702
